<svg xmlns="http://www.w3.org/2000/svg" xmlns:xlink="http://www.w3.org/1999/xlink" viewBox="0 0 17.8 26.23"><defs><style>.cls-1{fill:none;}.cls-2{clip-path:url(#clip-path);}.cls-3{fill:#fff;}</style><clipPath id="clip-path"><rect class="cls-1" width="17.8" height="26.28"/></clipPath></defs><title>location</title><g id="Layer_2" data-name="Layer 2"><g id="Layer_1-2" data-name="Layer 1"><g class="cls-2"><path class="cls-3" d="M8.9,0A8.91,8.91,0,0,0,0,8.9c0,2,1.16,5,3.65,9.44,1.7,3,3.39,5.62,3.47,5.73l1.22,1.86a.67.67,0,0,0,1.11,0l1.22-1.86c.07-.11,1.75-2.66,3.47-5.73,2.49-4.47,3.65-7.47,3.65-9.44A8.91,8.91,0,0,0,8.9,0ZM13,17.69c-1.69,3-3.34,5.54-3.41,5.65l-.67,1-.67-1c-.07-.11-1.74-2.64-3.41-5.65-2.31-4.14-3.48-7.1-3.48-8.79a7.57,7.57,0,0,1,15.13,0c0,1.69-1.17,4.65-3.48,8.79Zm0,0"/></g><path class="cls-3" d="M8.9,3.91a4.93,4.93,0,1,0,4.93,4.93A4.94,4.94,0,0,0,8.9,3.91Zm0,8.54a3.6,3.6,0,1,1,3.6-3.6,3.61,3.61,0,0,1-3.6,3.6Zm0,0"/></g></g></svg>