<svg xmlns="http://www.w3.org/2000/svg" viewBox="0 0 19.96 19.96"><defs><style>.cls-1{fill:#fff;}</style></defs><title>calendar</title><g id="Layer_2" data-name="Layer 2"><g id="Layer_1-2" data-name="Layer 1"><path class="cls-1" d="M18.29,1.87h-2.7V.62a.62.62,0,0,0-1.25,0V1.87H10.6V.62a.62.62,0,0,0-1.25,0V1.87H5.61V.62a.62.62,0,1,0-1.24,0V1.87H1.66A1.66,1.66,0,0,0,0,3.53V18.29A1.67,1.67,0,0,0,1.66,20H18.29A1.67,1.67,0,0,0,20,18.29V3.53a1.66,1.66,0,0,0-1.66-1.66Zm.41,16.42a.41.41,0,0,1-.41.42H1.66a.41.41,0,0,1-.41-.42V3.53a.41.41,0,0,1,.41-.41h2.7V4.37a.62.62,0,0,0,1.24,0V3.12H9.35V4.37a.62.62,0,0,0,1.25,0V3.12h3.74V4.37a.62.62,0,0,0,1.25,0V3.12h2.7a.41.41,0,0,1,.41.41Zm0,0"/><path class="cls-1" d="M13.89,8.33l-4.5,4.9L6.25,10.9a.94.94,0,0,0-1.11,1.5L9,15.23a.93.93,0,0,0,1.25-.12L15.27,9.6a.94.94,0,0,0-1.38-1.27Zm0,0"/></g></g></svg>