<svg xmlns="http://www.w3.org/2000/svg" viewBox="0 0 13.96 25.43"><defs><style>.cls-1{fill:#fff;}</style></defs><title>price</title><g id="Layer_2" data-name="Layer 2"><g id="Layer_1-2" data-name="Layer 1"><path class="cls-1" d="M13.06,9.1,7.95,4.62A1.48,1.48,0,0,0,6,4.62L4.19,6.21A4.64,4.64,0,0,1,4,5,4.25,4.25,0,0,1,4.93,2.3,2.65,2.65,0,0,1,7,1.25C8.6,1.25,9.92,2.93,9.92,5a.63.63,0,0,0,1.25,0c0-2.76-1.89-5-4.2-5A3.87,3.87,0,0,0,4,1.51,5.5,5.5,0,0,0,2.78,5a5.81,5.81,0,0,0,.39,2.11L.9,9.1a2.63,2.63,0,0,0-.9,2V22.29a3.14,3.14,0,0,0,3.14,3.14h7.68A3.14,3.14,0,0,0,14,22.29V11.07a2.63,2.63,0,0,0-.9-2Zm-.35,13.2a1.89,1.89,0,0,1-1.89,1.89H3.13a1.89,1.89,0,0,1-1.89-1.89V11.07a1.38,1.38,0,0,1,.47-1l2.06-1.8L4,8.48A3.87,3.87,0,0,0,7,10,.63.63,0,1,0,7,8.74a2.64,2.64,0,0,1-2-1.05L4.71,7.4l2.1-1.84a.23.23,0,0,1,.3,0L12.23,10a1.38,1.38,0,0,1,.47,1V22.29Zm0,0"/><path class="cls-1" d="M7.66,15.81H6.29a.88.88,0,1,1,0-1.76H8.71a.63.63,0,0,0,0-1.25H7.6V12a.63.63,0,0,0-1.25,0v.81H6.29a2.13,2.13,0,0,0,0,4.26H7.66a.88.88,0,0,1,0,1.76H5.19a.63.63,0,1,0,0,1.25H6.35v.83a.63.63,0,0,0,1.25,0v-.83h.09a2.13,2.13,0,0,0,0-4.26Zm0,0"/></g></g></svg>