<svg xmlns="http://www.w3.org/2000/svg" viewBox="0 0 49.06 49.06"><defs><style>.cls-1{fill:#fff;stroke:#fff;stroke-miterlimit:10;stroke-width:1.43px;}</style></defs><title>ticket</title><g id="Layer_2" data-name="Layer 2"><g id="Layer_1-2" data-name="Layer 1"><path class="cls-1" d="M42.67,13.35l-.51.51A3.68,3.68,0,0,1,39,15.1,4.91,4.91,0,0,1,34,10,3.68,3.68,0,0,1,35.2,6.9l.51-.51L30.34,1,1,30.34l5.38,5.38.51-.51A3.68,3.68,0,0,1,10,34,4.91,4.91,0,0,1,15.1,39a3.68,3.68,0,0,1-1.24,3.12l-.51.51,5.38,5.38L48.05,18.72ZM15.38,42.65A5,5,0,0,0,16.55,39,6.39,6.39,0,0,0,10,32.51a5,5,0,0,0-3.61,1.17L3.06,30.34,20.18,13.22l2.39,2.39,1-1L21.2,12.19l9.13-9.14,3.35,3.35A5,5,0,0,0,32.51,10,6.39,6.39,0,0,0,39,16.55a5,5,0,0,0,3.61-1.17L46,18.72l-9.14,9.13-2.39-2.39-1,1,2.39,2.39L18.72,46Zm0,0"/><path class="cls-1" d="M29.06,22.23l-2.77-3,1.07-1,2.77,3Zm0,0"/></g></g></svg>