<svg xmlns="http://www.w3.org/2000/svg" viewBox="0 0 46.03 46.03"><defs><style>.cls-1{fill:#fff;stroke:#fff;stroke-miterlimit:10;stroke-width:1.43px;}</style></defs><title>add</title><g id="Layer_2" data-name="Layer 2"><g id="Layer_1-2" data-name="Layer 1"><path class="cls-1" d="M43.3,21a2,2,0,0,1,1.41.57A1.94,1.94,0,0,1,45.32,23a2,2,0,0,1-.61,1.45A2,2,0,0,1,43.3,25H25V43.3a1.92,1.92,0,0,1-.57,1.41,2,2,0,0,1-1.45.61,1.93,1.93,0,0,1-1.41-.61A1.84,1.84,0,0,1,21,43.3V25H2.73a1.92,1.92,0,0,1-1.41-.57A2,2,0,0,1,.71,23a2,2,0,0,1,.6-1.41A1.92,1.92,0,0,1,2.73,21H21V2.73a1.84,1.84,0,0,1,.61-1.41A1.93,1.93,0,0,1,23,.71a2,2,0,0,1,1.45.61A1.92,1.92,0,0,1,25,2.73V21Z"/></g></g></svg>