<svg xmlns="http://www.w3.org/2000/svg" viewBox="0 0 37.11 44.8"><defs><style>.cls-1{fill:#fff;stroke:#fff;stroke-miterlimit:10;stroke-width:1.43px;}</style></defs><title>profile</title><g id="Layer_2" data-name="Layer 2"><g id="Layer_1-2" data-name="Layer 1"><path class="cls-1" d="M26,26.16l-.11-.05-.8-.34-.89-.33-.72-.23c-.37-.11-.74-.21-1.13-.29l-.4-.08-.09,0-.69-.12H21l-.58-.08-.68-.06a18.09,18.09,0,0,0-2.51,0l-.24,0h-.11l-.28,0-.77.1h-.08l-.52.09-.57.11c-.36.08-.73.18-1.08.28l-.81.26-.18.06c-.55.2-1.09.42-1.62.67l-.14.07h0A18.1,18.1,0,0,0,.71,42.53c0,.16,0,.31,0,.47l0,1.09H36.33l0-1.08c0-.16,0-.32,0-.48A18.08,18.08,0,0,0,26,26.16ZM2.46,42.33a16.32,16.32,0,0,1,9.23-14.5l.18-.07,0,0c.43-.2.88-.38,1.33-.54l.14-.05.75-.24c.32-.09.64-.18,1-.25l.51-.1.41-.07h.07l.75-.1.57-.05a15.22,15.22,0,0,1,2.32,0l.55,0,.44.06.2,0,.63.11.1,0,.35.07c.34.08.68.17,1,.26l.66.2.81.3.76.32,0,0a16.31,16.31,0,0,1,9.4,14.58H2.46Zm11.79-20,.4.15.28.1.33.12a11,11,0,0,0,3.23.51h.09a10.9,10.9,0,0,0,1.12-.06l.37-.05.27,0,.47-.07.32-.08.3-.08.44-.12.27-.1.24-.09.52-.19.2-.09.08,0c.24-.11.47-.22.71-.34l.15-.09c.26-.15.52-.3.79-.49s.27-.2.4-.3l.45-.35a11.19,11.19,0,0,0,4-8.56v-.09a11.11,11.11,0,0,0-22.21-.71v.15c0,.19,0,.37,0,.56a11.21,11.21,0,0,0,6.79,10.35Zm-5-10.79v-.16A9.37,9.37,0,0,1,28,11.86V12a9.51,9.51,0,0,1-3.42,7.29l-.41.32-.3.23c-.21.14-.43.27-.66.4l-.12.08c-.19.1-.39.19-.59.28l-.23.11-.41.15-.29.1-.17.06-.33.09-.35.09-.22.06-.35.06-.33.05-.25,0c-.29,0-.58,0-.88.05h-.08A9.25,9.25,0,0,1,15.78,21l-.23-.08-.33-.12-.3-.11A9.46,9.46,0,0,1,9.2,11.94c0-.15,0-.29,0-.44Zm0,0"/></g></g></svg>